<?xml version="1.0" encoding="UTF-8"?>
<!DOCTYPE svg PUBLIC "-//W3C//DTD SVG 1.1//EN" "http://www.w3.org/Graphics/SVG/1.1/DTD/svg11.dtd">
<svg version="1.1" xmlns="http://www.w3.org/2000/svg" xmlns:xlink="http://www.w3.org/1999/xlink" x="0" y="0" width="838" height="470" viewBox="0, 0, 838, 470">
  <defs>
    <clipPath id="Clip_1">
      <path d="M93.84,52.97 L823.83,52.97 L823.83,417.97 L93.84,417.97 z"/>
    </clipPath>
    <clipPath id="Clip_2">
      <path d="M93.84,52.97 L823.83,52.97 L823.83,417.97 L93.84,417.97 z"/>
    </clipPath>
    <clipPath id="Clip_3">
      <path d="M93.84,52.97 L823.83,52.97 L823.83,417.97 L93.84,417.97 z"/>
    </clipPath>
    <clipPath id="Clip_4">
      <path d="M93.84,52.97 L823.83,52.97 L823.83,417.97 L93.84,417.97 z"/>
    </clipPath>
    <clipPath id="Clip_5">
      <path d="M93.84,52.97 L823.83,52.97 L823.83,417.97 L93.84,417.97 z"/>
    </clipPath>
    <clipPath id="Clip_6">
      <path d="M93.84,52.97 L823.83,52.97 L823.83,417.97 L93.84,417.97 z"/>
    </clipPath>
    <clipPath id="Clip_7">
      <path d="M93.84,52.97 L823.83,52.97 L823.83,417.97 L93.84,417.97 z"/>
    </clipPath>
    <clipPath id="Clip_8">
      <path d="M93.84,52.97 L823.83,52.97 L823.83,417.97 L93.84,417.97 z"/>
    </clipPath>
    <clipPath id="Clip_9">
      <path d="M93.84,52.97 L823.83,52.97 L823.83,417.97 L93.84,417.97 z"/>
    </clipPath>
    <clipPath id="Clip_10">
      <path d="M93.84,52.97 L823.83,52.97 L823.83,417.97 L93.84,417.97 z"/>
    </clipPath>
    <clipPath id="Clip_11">
      <path d="M93.84,52.97 L823.83,52.97 L823.83,417.97 L93.84,417.97 z"/>
    </clipPath>
    <clipPath id="Clip_12">
      <path d="M93.84,52.97 L823.83,52.97 L823.83,417.97 L93.84,417.97 z"/>
    </clipPath>
    <clipPath id="Clip_13">
      <path d="M93.84,52.97 L823.83,52.97 L823.83,417.97 L93.84,417.97 z"/>
    </clipPath>
    <clipPath id="Clip_14">
      <path d="M93.84,52.97 L823.83,52.97 L823.83,417.97 L93.84,417.97 z"/>
    </clipPath>
    <clipPath id="Clip_15">
      <path d="M93.84,52.97 L823.83,52.97 L823.83,417.97 L93.84,417.97 z"/>
    </clipPath>
    <clipPath id="Clip_16">
      <path d="M93.84,52.97 L823.83,52.97 L823.83,417.97 L93.84,417.97 z"/>
    </clipPath>
    <clipPath id="Clip_17">
      <path d="M93.84,52.97 L823.83,52.97 L823.83,417.97 L93.84,417.97 z"/>
    </clipPath>
    <clipPath id="Clip_18">
      <path d="M93.84,52.97 L823.83,52.97 L823.83,417.97 L93.84,417.97 z"/>
    </clipPath>
    <clipPath id="Clip_19">
      <path d="M93.84,52.97 L823.83,52.97 L823.83,417.97 L93.84,417.97 z"/>
    </clipPath>
    <clipPath id="Clip_20">
      <path d="M93.84,52.97 L823.83,52.97 L823.83,417.97 L93.84,417.97 z"/>
    </clipPath>
    <clipPath id="Clip_21">
      <path d="M93.84,52.97 L823.83,52.97 L823.83,417.97 L93.84,417.97 z"/>
    </clipPath>
    <clipPath id="Clip_22">
      <path d="M0,-137.5 L838,-137.5 L838,607.5 L0,607.5 z"/>
    </clipPath>
    <clipPath id="Clip_23">
      <path d="M0,-137.5 L838,-137.5 L838,607.5 L0,607.5 z"/>
    </clipPath>
    <clipPath id="Clip_24">
      <path d="M0,-137.5 L838,-137.5 L838,607.5 L0,607.5 z"/>
    </clipPath>
    <clipPath id="Clip_25">
      <path d="M0,-137.5 L838,-137.5 L838,607.5 L0,607.5 z"/>
    </clipPath>
    <clipPath id="Clip_26">
      <path d="M0,-137.5 L838,-137.5 L838,607.5 L0,607.5 z"/>
    </clipPath>
    <clipPath id="Clip_27">
      <path d="M0,-137.5 L838,-137.5 L838,607.5 L0,607.5 z"/>
    </clipPath>
    <clipPath id="Clip_28">
      <path d="M0,-137.5 L838,-137.5 L838,607.5 L0,607.5 z"/>
    </clipPath>
    <clipPath id="Clip_29">
      <path d="M0,-137.5 L838,-137.5 L838,607.5 L0,607.5 z"/>
    </clipPath>
    <clipPath id="Clip_30">
      <path d="M0,-137.5 L838,-137.5 L838,607.5 L0,607.5 z"/>
    </clipPath>
    <clipPath id="Clip_31">
      <path d="M0,-137.5 L838,-137.5 L838,607.5 L0,607.5 z"/>
    </clipPath>
    <clipPath id="Clip_32">
      <path d="M0,-137.5 L838,-137.5 L838,607.5 L0,607.5 z"/>
    </clipPath>
    <clipPath id="Clip_33">
      <path d="M0,-137.5 L838,-137.5 L838,607.5 L0,607.5 z"/>
    </clipPath>
    <clipPath id="Clip_34">
      <path d="M0,-137.5 L838,-137.5 L838,607.5 L0,607.5 z"/>
    </clipPath>
    <clipPath id="Clip_35">
      <path d="M0,-137.5 L838,-137.5 L838,607.5 L0,607.5 z"/>
    </clipPath>
    <clipPath id="Clip_36">
      <path d="M0,-137.5 L838,-137.5 L838,607.5 L0,607.5 z"/>
    </clipPath>
    <clipPath id="Clip_37">
      <path d="M0,-137.5 L838,-137.5 L838,607.5 L0,607.5 z"/>
    </clipPath>
    <clipPath id="Clip_38">
      <path d="M0,-137.5 L838,-137.5 L838,607.5 L0,607.5 z"/>
    </clipPath>
    <clipPath id="Clip_39">
      <path d="M0,-137.5 L838,-137.5 L838,607.5 L0,607.5 z"/>
    </clipPath>
    <clipPath id="Clip_40">
      <path d="M0,-137.5 L838,-137.5 L838,607.5 L0,607.5 z"/>
    </clipPath>
    <clipPath id="Clip_41">
      <path d="M0,-137.5 L838,-137.5 L838,607.5 L0,607.5 z"/>
    </clipPath>
    <clipPath id="Clip_42">
      <path d="M0,-137.5 L838,-137.5 L838,607.5 L0,607.5 z"/>
    </clipPath>
    <clipPath id="Clip_43">
      <path d="M0,-137.5 L838,-137.5 L838,607.5 L0,607.5 z"/>
    </clipPath>
    <clipPath id="Clip_44">
      <path d="M0,-137.5 L838,-137.5 L838,607.5 L0,607.5 z"/>
    </clipPath>
    <clipPath id="Clip_45">
      <path d="M0,-137.5 L838,-137.5 L838,607.5 L0,607.5 z"/>
    </clipPath>
    <clipPath id="Clip_46">
      <path d="M0,-137.5 L838,-137.5 L838,607.5 L0,607.5 z"/>
    </clipPath>
    <clipPath id="Clip_47">
      <path d="M0,-137.5 L838,-137.5 L838,607.5 L0,607.5 z"/>
    </clipPath>
    <clipPath id="Clip_48">
      <path d="M0,-137.5 L838,-137.5 L838,607.5 L0,607.5 z"/>
    </clipPath>
    <clipPath id="Clip_49">
      <path d="M0,-137.5 L838,-137.5 L838,607.5 L0,607.5 z"/>
    </clipPath>
    <clipPath id="Clip_50">
      <path d="M0,-137.5 L838,-137.5 L838,607.5 L0,607.5 z"/>
    </clipPath>
  </defs>
  <g id="Layer_1">
    <g>
      <path d="M0,-137.5 L1,-137.5 L1,-136.5 L0,-136.5 z" fill="#FFFFFF"/>
      <path d="M0,-137.5 L1,-137.5 L1,-136.5 L0,-136.5 z" fill-opacity="0" stroke="#000000" stroke-width="1" stroke-linecap="round" stroke-linejoin="round" stroke-miterlimit="10"/>
    </g>
    <path d="M127.02,407.63 L790.65,407.63" fill-opacity="0" stroke="#F0F0F0" stroke-width="1" stroke-linejoin="round" stroke-miterlimit="10"/>
    <path d="M127.02,390.41 L790.65,390.41" fill-opacity="0" stroke="#F0F0F0" stroke-width="1" stroke-linejoin="round" stroke-miterlimit="10"/>
    <path d="M127.02,373.2 L672.67,373.2" fill-opacity="0" stroke="#F0F0F0" stroke-width="1" stroke-linejoin="round" stroke-miterlimit="10"/>
    <path d="M127.02,355.98 L643.17,355.98" fill-opacity="0" stroke="#F0F0F0" stroke-width="1" stroke-linejoin="round" stroke-miterlimit="10"/>
    <path d="M127.02,338.76 L628.43,338.76" fill-opacity="0" stroke="#F0F0F0" stroke-width="1" stroke-linejoin="round" stroke-miterlimit="10"/>
    <path d="M127.02,321.55 L628.43,321.55" fill-opacity="0" stroke="#F0F0F0" stroke-width="1" stroke-linejoin="round" stroke-miterlimit="10"/>
    <path d="M127.02,304.33 L613.68,304.33" fill-opacity="0" stroke="#F0F0F0" stroke-width="1" stroke-linejoin="round" stroke-miterlimit="10"/>
    <path d="M127.02,287.11 L598.93,287.11" fill-opacity="0" stroke="#F0F0F0" stroke-width="1" stroke-linejoin="round" stroke-miterlimit="10"/>
    <path d="M127.02,269.9 L598.93,269.9" fill-opacity="0" stroke="#F0F0F0" stroke-width="1" stroke-linejoin="round" stroke-miterlimit="10"/>
    <path d="M127.02,252.68 L598.93,252.68" fill-opacity="0" stroke="#F0F0F0" stroke-width="1" stroke-linejoin="round" stroke-miterlimit="10"/>
    <path d="M127.02,235.46 L569.44,235.46" fill-opacity="0" stroke="#F0F0F0" stroke-width="1" stroke-linejoin="round" stroke-miterlimit="10"/>
    <path d="M127.02,218.25 L539.94,218.25" fill-opacity="0" stroke="#F0F0F0" stroke-width="1" stroke-linejoin="round" stroke-miterlimit="10"/>
    <path d="M127.02,201.03 L495.7,201.03" fill-opacity="0" stroke="#F0F0F0" stroke-width="1" stroke-linejoin="round" stroke-miterlimit="10"/>
    <path d="M127.02,183.81 L495.7,183.81" fill-opacity="0" stroke="#F0F0F0" stroke-width="1" stroke-linejoin="round" stroke-miterlimit="10"/>
    <path d="M127.02,166.6 L480.95,166.6" fill-opacity="0" stroke="#F0F0F0" stroke-width="1" stroke-linejoin="round" stroke-miterlimit="10"/>
    <path d="M127.02,149.38 L466.2,149.38" fill-opacity="0" stroke="#F0F0F0" stroke-width="1" stroke-linejoin="round" stroke-miterlimit="10"/>
    <path d="M127.02,132.16 L451.46,132.16" fill-opacity="0" stroke="#F0F0F0" stroke-width="1" stroke-linejoin="round" stroke-miterlimit="10"/>
    <path d="M127.02,114.95 L451.46,114.95" fill-opacity="0" stroke="#F0F0F0" stroke-width="1" stroke-linejoin="round" stroke-miterlimit="10"/>
    <path d="M127.02,97.73 L436.71,97.73" fill-opacity="0" stroke="#F0F0F0" stroke-width="1" stroke-linejoin="round" stroke-miterlimit="10"/>
    <path d="M127.02,80.51 L362.97,80.51" fill-opacity="0" stroke="#F0F0F0" stroke-width="1" stroke-linejoin="round" stroke-miterlimit="10"/>
    <path d="M127.02,63.3 L318.73,63.3" fill-opacity="0" stroke="#F0F0F0" stroke-width="1" stroke-linejoin="round" stroke-miterlimit="10"/>
    <g>
      <path d="M797.41,407.63 C797.41,411.363 794.383,414.39 790.65,414.39 C786.917,414.39 783.89,411.363 783.89,407.63 C783.89,403.897 786.917,400.87 790.65,400.87 C794.383,400.87 797.41,403.897 797.41,407.63 z" fill="#FC6721"/>
      <path d="M797.41,407.63 C797.41,411.363 794.383,414.39 790.65,414.39 C786.917,414.39 783.89,411.363 783.89,407.63 C783.89,403.897 786.917,400.87 790.65,400.87 C794.383,400.87 797.41,403.897 797.41,407.63 z" fill-opacity="0" stroke="#FC6721" stroke-width="1" stroke-linecap="round" stroke-linejoin="round" stroke-miterlimit="10"/>
    </g>
    <g>
      <path d="M797.41,390.41 C797.41,394.143 794.383,397.17 790.65,397.17 C786.917,397.17 783.89,394.143 783.89,390.41 C783.89,386.677 786.917,383.65 790.65,383.65 C794.383,383.65 797.41,386.677 797.41,390.41 z" fill="#FC6721"/>
      <path d="M797.41,390.41 C797.41,394.143 794.383,397.17 790.65,397.17 C786.917,397.17 783.89,394.143 783.89,390.41 C783.89,386.677 786.917,383.65 790.65,383.65 C794.383,383.65 797.41,386.677 797.41,390.41 z" fill-opacity="0" stroke="#FC6721" stroke-width="1" stroke-linecap="round" stroke-linejoin="round" stroke-miterlimit="10"/>
    </g>
    <g>
      <path d="M679.43,373.2 C679.43,376.933 676.403,379.96 672.67,379.96 C668.937,379.96 665.91,376.933 665.91,373.2 C665.91,369.467 668.937,366.44 672.67,366.44 C676.403,366.44 679.43,369.467 679.43,373.2 z" fill="#FC6721"/>
      <path d="M679.43,373.2 C679.43,376.933 676.403,379.96 672.67,379.96 C668.937,379.96 665.91,376.933 665.91,373.2 C665.91,369.467 668.937,366.44 672.67,366.44 C676.403,366.44 679.43,369.467 679.43,373.2 z" fill-opacity="0" stroke="#FC6721" stroke-width="1" stroke-linecap="round" stroke-linejoin="round" stroke-miterlimit="10"/>
    </g>
    <g>
      <path d="M649.93,355.98 C649.93,359.713 646.903,362.74 643.17,362.74 C639.437,362.74 636.41,359.713 636.41,355.98 C636.41,352.247 639.437,349.22 643.17,349.22 C646.903,349.22 649.93,352.247 649.93,355.98 z" fill="#FC6721"/>
      <path d="M649.93,355.98 C649.93,359.713 646.903,362.74 643.17,362.74 C639.437,362.74 636.41,359.713 636.41,355.98 C636.41,352.247 639.437,349.22 643.17,349.22 C646.903,349.22 649.93,352.247 649.93,355.98 z" fill-opacity="0" stroke="#FC6721" stroke-width="1" stroke-linecap="round" stroke-linejoin="round" stroke-miterlimit="10"/>
    </g>
    <g>
      <path d="M635.19,338.76 C635.19,342.493 632.163,345.52 628.43,345.52 C624.697,345.52 621.67,342.493 621.67,338.76 C621.67,335.027 624.697,332 628.43,332 C632.163,332 635.19,335.027 635.19,338.76 z" fill="#FC6721"/>
      <path d="M635.19,338.76 C635.19,342.493 632.163,345.52 628.43,345.52 C624.697,345.52 621.67,342.493 621.67,338.76 C621.67,335.027 624.697,332 628.43,332 C632.163,332 635.19,335.027 635.19,338.76 z" fill-opacity="0" stroke="#FC6721" stroke-width="1" stroke-linecap="round" stroke-linejoin="round" stroke-miterlimit="10"/>
    </g>
    <g>
      <path d="M635.19,321.55 C635.19,325.283 632.163,328.31 628.43,328.31 C624.697,328.31 621.67,325.283 621.67,321.55 C621.67,317.817 624.697,314.79 628.43,314.79 C632.163,314.79 635.19,317.817 635.19,321.55 z" fill="#FC6721"/>
      <path d="M635.19,321.55 C635.19,325.283 632.163,328.31 628.43,328.31 C624.697,328.31 621.67,325.283 621.67,321.55 C621.67,317.817 624.697,314.79 628.43,314.79 C632.163,314.79 635.19,317.817 635.19,321.55 z" fill-opacity="0" stroke="#FC6721" stroke-width="1" stroke-linecap="round" stroke-linejoin="round" stroke-miterlimit="10"/>
    </g>
    <g>
      <path d="M620.44,304.33 C620.44,308.063 617.413,311.09 613.68,311.09 C609.947,311.09 606.92,308.063 606.92,304.33 C606.92,300.597 609.947,297.57 613.68,297.57 C617.413,297.57 620.44,300.597 620.44,304.33 z" fill="#FC6721"/>
      <path d="M620.44,304.33 C620.44,308.063 617.413,311.09 613.68,311.09 C609.947,311.09 606.92,308.063 606.92,304.33 C606.92,300.597 609.947,297.57 613.68,297.57 C617.413,297.57 620.44,300.597 620.44,304.33 z" fill-opacity="0" stroke="#FC6721" stroke-width="1" stroke-linecap="round" stroke-linejoin="round" stroke-miterlimit="10"/>
    </g>
    <g>
      <path d="M605.69,287.11 C605.69,290.843 602.663,293.87 598.93,293.87 C595.197,293.87 592.17,290.843 592.17,287.11 C592.17,283.377 595.197,280.35 598.93,280.35 C602.663,280.35 605.69,283.377 605.69,287.11 z" fill="#FC6721"/>
      <path d="M605.69,287.11 C605.69,290.843 602.663,293.87 598.93,293.87 C595.197,293.87 592.17,290.843 592.17,287.11 C592.17,283.377 595.197,280.35 598.93,280.35 C602.663,280.35 605.69,283.377 605.69,287.11 z" fill-opacity="0" stroke="#FC6721" stroke-width="1" stroke-linecap="round" stroke-linejoin="round" stroke-miterlimit="10"/>
    </g>
    <g>
      <path d="M605.69,269.9 C605.69,273.633 602.663,276.66 598.93,276.66 C595.197,276.66 592.17,273.633 592.17,269.9 C592.17,266.167 595.197,263.14 598.93,263.14 C602.663,263.14 605.69,266.167 605.69,269.9 z" fill="#FC6721"/>
      <path d="M605.69,269.9 C605.69,273.633 602.663,276.66 598.93,276.66 C595.197,276.66 592.17,273.633 592.17,269.9 C592.17,266.167 595.197,263.14 598.93,263.14 C602.663,263.14 605.69,266.167 605.69,269.9 z" fill-opacity="0" stroke="#FC6721" stroke-width="1" stroke-linecap="round" stroke-linejoin="round" stroke-miterlimit="10"/>
    </g>
    <g>
      <path d="M605.69,252.68 C605.69,256.413 602.663,259.44 598.93,259.44 C595.197,259.44 592.17,256.413 592.17,252.68 C592.17,248.947 595.197,245.92 598.93,245.92 C602.663,245.92 605.69,248.947 605.69,252.68 z" fill="#FC6721"/>
      <path d="M605.69,252.68 C605.69,256.413 602.663,259.44 598.93,259.44 C595.197,259.44 592.17,256.413 592.17,252.68 C592.17,248.947 595.197,245.92 598.93,245.92 C602.663,245.92 605.69,248.947 605.69,252.68 z" fill-opacity="0" stroke="#FC6721" stroke-width="1" stroke-linecap="round" stroke-linejoin="round" stroke-miterlimit="10"/>
    </g>
    <g>
      <path d="M576.2,235.46 C576.2,239.193 573.173,242.22 569.44,242.22 C565.707,242.22 562.68,239.193 562.68,235.46 C562.68,231.727 565.707,228.7 569.44,228.7 C573.173,228.7 576.2,231.727 576.2,235.46 z" fill="#FC6721"/>
      <path d="M576.2,235.46 C576.2,239.193 573.173,242.22 569.44,242.22 C565.707,242.22 562.68,239.193 562.68,235.46 C562.68,231.727 565.707,228.7 569.44,228.7 C573.173,228.7 576.2,231.727 576.2,235.46 z" fill-opacity="0" stroke="#FC6721" stroke-width="1" stroke-linecap="round" stroke-linejoin="round" stroke-miterlimit="10"/>
    </g>
    <g>
      <path d="M546.7,218.25 C546.7,221.983 543.673,225.01 539.94,225.01 C536.207,225.01 533.18,221.983 533.18,218.25 C533.18,214.517 536.207,211.49 539.94,211.49 C543.673,211.49 546.7,214.517 546.7,218.25 z" fill="#FC6721"/>
      <path d="M546.7,218.25 C546.7,221.983 543.673,225.01 539.94,225.01 C536.207,225.01 533.18,221.983 533.18,218.25 C533.18,214.517 536.207,211.49 539.94,211.49 C543.673,211.49 546.7,214.517 546.7,218.25 z" fill-opacity="0" stroke="#FC6721" stroke-width="1" stroke-linecap="round" stroke-linejoin="round" stroke-miterlimit="10"/>
    </g>
    <g>
      <path d="M502.46,201.03 C502.46,204.763 499.433,207.79 495.7,207.79 C491.967,207.79 488.94,204.763 488.94,201.03 C488.94,197.297 491.967,194.27 495.7,194.27 C499.433,194.27 502.46,197.297 502.46,201.03 z" fill="#FC6721"/>
      <path d="M502.46,201.03 C502.46,204.763 499.433,207.79 495.7,207.79 C491.967,207.79 488.94,204.763 488.94,201.03 C488.94,197.297 491.967,194.27 495.7,194.27 C499.433,194.27 502.46,197.297 502.46,201.03 z" fill-opacity="0" stroke="#FC6721" stroke-width="1" stroke-linecap="round" stroke-linejoin="round" stroke-miterlimit="10"/>
    </g>
    <g>
      <path d="M502.46,183.81 C502.46,187.543 499.433,190.57 495.7,190.57 C491.967,190.57 488.94,187.543 488.94,183.81 C488.94,180.077 491.967,177.05 495.7,177.05 C499.433,177.05 502.46,180.077 502.46,183.81 z" fill="#FC6721"/>
      <path d="M502.46,183.81 C502.46,187.543 499.433,190.57 495.7,190.57 C491.967,190.57 488.94,187.543 488.94,183.81 C488.94,180.077 491.967,177.05 495.7,177.05 C499.433,177.05 502.46,180.077 502.46,183.81 z" fill-opacity="0" stroke="#FC6721" stroke-width="1" stroke-linecap="round" stroke-linejoin="round" stroke-miterlimit="10"/>
    </g>
    <g>
      <path d="M487.71,166.6 C487.71,170.333 484.683,173.36 480.95,173.36 C477.217,173.36 474.19,170.333 474.19,166.6 C474.19,162.867 477.217,159.84 480.95,159.84 C484.683,159.84 487.71,162.867 487.71,166.6 z" fill="#FC6721"/>
      <path d="M487.71,166.6 C487.71,170.333 484.683,173.36 480.95,173.36 C477.217,173.36 474.19,170.333 474.19,166.6 C474.19,162.867 477.217,159.84 480.95,159.84 C484.683,159.84 487.71,162.867 487.71,166.6 z" fill-opacity="0" stroke="#FC6721" stroke-width="1" stroke-linecap="round" stroke-linejoin="round" stroke-miterlimit="10"/>
    </g>
    <g>
      <path d="M472.96,149.38 C472.96,153.113 469.933,156.14 466.2,156.14 C462.467,156.14 459.44,153.113 459.44,149.38 C459.44,145.647 462.467,142.62 466.2,142.62 C469.933,142.62 472.96,145.647 472.96,149.38 z" fill="#FC6721"/>
      <path d="M472.96,149.38 C472.96,153.113 469.933,156.14 466.2,156.14 C462.467,156.14 459.44,153.113 459.44,149.38 C459.44,145.647 462.467,142.62 466.2,142.62 C469.933,142.62 472.96,145.647 472.96,149.38 z" fill-opacity="0" stroke="#FC6721" stroke-width="1" stroke-linecap="round" stroke-linejoin="round" stroke-miterlimit="10"/>
    </g>
    <g>
      <path d="M458.22,132.16 C458.22,135.893 455.193,138.92 451.46,138.92 C447.727,138.92 444.7,135.893 444.7,132.16 C444.7,128.427 447.727,125.4 451.46,125.4 C455.193,125.4 458.22,128.427 458.22,132.16 z" fill="#FC6721"/>
      <path d="M458.22,132.16 C458.22,135.893 455.193,138.92 451.46,138.92 C447.727,138.92 444.7,135.893 444.7,132.16 C444.7,128.427 447.727,125.4 451.46,125.4 C455.193,125.4 458.22,128.427 458.22,132.16 z" fill-opacity="0" stroke="#FC6721" stroke-width="1" stroke-linecap="round" stroke-linejoin="round" stroke-miterlimit="10"/>
    </g>
    <g>
      <path d="M458.22,114.95 C458.22,118.683 455.193,121.71 451.46,121.71 C447.727,121.71 444.7,118.683 444.7,114.95 C444.7,111.217 447.727,108.19 451.46,108.19 C455.193,108.19 458.22,111.217 458.22,114.95 z" fill="#FC6721"/>
      <path d="M458.22,114.95 C458.22,118.683 455.193,121.71 451.46,121.71 C447.727,121.71 444.7,118.683 444.7,114.95 C444.7,111.217 447.727,108.19 451.46,108.19 C455.193,108.19 458.22,111.217 458.22,114.95 z" fill-opacity="0" stroke="#FC6721" stroke-width="1" stroke-linecap="round" stroke-linejoin="round" stroke-miterlimit="10"/>
    </g>
    <g>
      <path d="M443.47,97.73 C443.47,101.463 440.443,104.49 436.71,104.49 C432.977,104.49 429.95,101.463 429.95,97.73 C429.95,93.997 432.977,90.97 436.71,90.97 C440.443,90.97 443.47,93.997 443.47,97.73 z" fill="#FC6721"/>
      <path d="M443.47,97.73 C443.47,101.463 440.443,104.49 436.71,104.49 C432.977,104.49 429.95,101.463 429.95,97.73 C429.95,93.997 432.977,90.97 436.71,90.97 C440.443,90.97 443.47,93.997 443.47,97.73 z" fill-opacity="0" stroke="#FC6721" stroke-width="1" stroke-linecap="round" stroke-linejoin="round" stroke-miterlimit="10"/>
    </g>
    <g>
      <path d="M369.73,80.51 C369.73,84.243 366.703,87.27 362.97,87.27 C359.237,87.27 356.21,84.243 356.21,80.51 C356.21,76.777 359.237,73.75 362.97,73.75 C366.703,73.75 369.73,76.777 369.73,80.51 z" fill="#FC6721"/>
      <path d="M369.73,80.51 C369.73,84.243 366.703,87.27 362.97,87.27 C359.237,87.27 356.21,84.243 356.21,80.51 C356.21,76.777 359.237,73.75 362.97,73.75 C366.703,73.75 369.73,76.777 369.73,80.51 z" fill-opacity="0" stroke="#FC6721" stroke-width="1" stroke-linecap="round" stroke-linejoin="round" stroke-miterlimit="10"/>
    </g>
    <g>
      <path d="M325.49,63.3 C325.49,67.033 322.463,70.06 318.73,70.06 C314.997,70.06 311.97,67.033 311.97,63.3 C311.97,59.567 314.997,56.54 318.73,56.54 C322.463,56.54 325.49,59.567 325.49,63.3 z" fill="#FC6721"/>
      <path d="M325.49,63.3 C325.49,67.033 322.463,70.06 318.73,70.06 C314.997,70.06 311.97,67.033 311.97,63.3 C311.97,59.567 314.997,56.54 318.73,56.54 C322.463,56.54 325.49,59.567 325.49,63.3 z" fill-opacity="0" stroke="#FC6721" stroke-width="1" stroke-linecap="round" stroke-linejoin="round" stroke-miterlimit="10"/>
    </g>
    <g clip-path="url(#Clip_1)">
      <text transform="matrix(1, 0, 0, 1, 790.89, 408.35)">
        <tspan x="-5.25" y="2.5" font-family="Arial-BoldMT" font-size="8.54" fill="#FFFFFF">45</tspan>
      </text>
    </g>
    <g clip-path="url(#Clip_2)">
      <text transform="matrix(1, 0, 0, 1, 790.89, 391.13)">
        <tspan x="-5.25" y="2.5" font-family="Arial-BoldMT" font-size="8.54" fill="#FFFFFF">45</tspan>
      </text>
    </g>
    <g clip-path="url(#Clip_3)">
      <text transform="matrix(1, 0, 0, 1, 672.91, 373.92)">
        <tspan x="-5.25" y="2.5" font-family="Arial-BoldMT" font-size="8.54" fill="#FFFFFF">37</tspan>
      </text>
    </g>
    <g clip-path="url(#Clip_4)">
      <text transform="matrix(1, 0, 0, 1, 643.42, 356.7)">
        <tspan x="-5.25" y="2.5" font-family="Arial-BoldMT" font-size="8.54" fill="#FFFFFF">35</tspan>
      </text>
    </g>
    <g clip-path="url(#Clip_5)">
      <text transform="matrix(1, 0, 0, 1, 628.67, 339.48)">
        <tspan x="-5.25" y="2.5" font-family="Arial-BoldMT" font-size="8.54" fill="#FFFFFF">34</tspan>
      </text>
    </g>
    <g clip-path="url(#Clip_6)">
      <text transform="matrix(1, 0, 0, 1, 628.67, 322.27)">
        <tspan x="-5.25" y="2.5" font-family="Arial-BoldMT" font-size="8.54" fill="#FFFFFF">34</tspan>
      </text>
    </g>
    <g clip-path="url(#Clip_7)">
      <text transform="matrix(1, 0, 0, 1, 613.92, 305.05)">
        <tspan x="-5.25" y="2.5" font-family="Arial-BoldMT" font-size="8.54" fill="#FFFFFF">33</tspan>
      </text>
    </g>
    <g clip-path="url(#Clip_8)">
      <text transform="matrix(1, 0, 0, 1, 599.18, 287.83)">
        <tspan x="-5.25" y="2.5" font-family="Arial-BoldMT" font-size="8.54" fill="#FFFFFF">32</tspan>
      </text>
    </g>
    <g clip-path="url(#Clip_9)">
      <text transform="matrix(1, 0, 0, 1, 599.18, 270.62)">
        <tspan x="-5.25" y="2.5" font-family="Arial-BoldMT" font-size="8.54" fill="#FFFFFF">32</tspan>
      </text>
    </g>
    <g clip-path="url(#Clip_10)">
      <text transform="matrix(1, 0, 0, 1, 599.18, 253.4)">
        <tspan x="-5.25" y="2.5" font-family="Arial-BoldMT" font-size="8.54" fill="#FFFFFF">32</tspan>
      </text>
    </g>
    <g clip-path="url(#Clip_11)">
      <text transform="matrix(1, 0, 0, 1, 569.68, 236.18)">
        <tspan x="-5.25" y="2.5" font-family="Arial-BoldMT" font-size="8.54" fill="#FFFFFF">30</tspan>
      </text>
    </g>
    <g clip-path="url(#Clip_12)">
      <text transform="matrix(1, 0, 0, 1, 540.19, 218.97)">
        <tspan x="-5.25" y="2.5" font-family="Arial-BoldMT" font-size="8.54" fill="#FFFFFF">28</tspan>
      </text>
    </g>
    <g clip-path="url(#Clip_13)">
      <text transform="matrix(1, 0, 0, 1, 495.94, 201.75)">
        <tspan x="-5.25" y="2.5" font-family="Arial-BoldMT" font-size="8.54" fill="#FFFFFF">25</tspan>
      </text>
    </g>
    <g clip-path="url(#Clip_14)">
      <text transform="matrix(1, 0, 0, 1, 495.94, 184.53)">
        <tspan x="-5.25" y="2.5" font-family="Arial-BoldMT" font-size="8.54" fill="#FFFFFF">25</tspan>
      </text>
    </g>
    <g clip-path="url(#Clip_15)">
      <text transform="matrix(1, 0, 0, 1, 481.2, 167.31)">
        <tspan x="-5.25" y="2.5" font-family="Arial-BoldMT" font-size="8.54" fill="#FFFFFF">24</tspan>
      </text>
    </g>
    <g clip-path="url(#Clip_16)">
      <text transform="matrix(1, 0, 0, 1, 466.45, 150.1)">
        <tspan x="-5.25" y="2.5" font-family="Arial-BoldMT" font-size="8.54" fill="#FFFFFF">23</tspan>
      </text>
    </g>
    <g clip-path="url(#Clip_17)">
      <text transform="matrix(1, 0, 0, 1, 451.7, 132.88)">
        <tspan x="-5.25" y="2.5" font-family="Arial-BoldMT" font-size="8.54" fill="#FFFFFF">22</tspan>
      </text>
    </g>
    <g clip-path="url(#Clip_18)">
      <text transform="matrix(1, 0, 0, 1, 451.7, 115.66)">
        <tspan x="-5.25" y="2.5" font-family="Arial-BoldMT" font-size="8.54" fill="#FFFFFF">22</tspan>
      </text>
    </g>
    <g clip-path="url(#Clip_19)">
      <text transform="matrix(1, 0, 0, 1, 436.95, 98.45)">
        <tspan x="-5.25" y="2.5" font-family="Arial-BoldMT" font-size="8.54" fill="#FFFFFF">21</tspan>
      </text>
    </g>
    <g clip-path="url(#Clip_20)">
      <text transform="matrix(1, 0, 0, 1, 363.22, 81.23)">
        <tspan x="-5.25" y="2.5" font-family="Arial-BoldMT" font-size="8.54" fill="#FFFFFF">16</tspan>
      </text>
    </g>
    <g clip-path="url(#Clip_21)">
      <text transform="matrix(1, 0, 0, 1, 318.98, 64.01)">
        <tspan x="-5.25" y="2.5" font-family="Arial-BoldMT" font-size="8.54" fill="#FFFFFF">13</tspan>
      </text>
    </g>
    <path d="M93.84,417.96 L93.84,52.97" fill-opacity="0" stroke="#FFFFFF" stroke-width="1" stroke-linejoin="round" stroke-miterlimit="10"/>
    <g clip-path="url(#Clip_22)">
      <text transform="matrix(1, 0, 0, 1, 33.872, 407.7)">
        <tspan x="-19.702" y="3.5" font-family="OpenSans-Regular" font-size="10" fill="#757575">Bowdon</tspan>
      </text>
    </g>
    <g clip-path="url(#Clip_23)">
      <text transform="matrix(1, 0, 0, 1, 40.024, 390.48)">
        <tspan x="-25.854" y="3.5" font-family="OpenSans-Regular" font-size="10" fill="#757575">Hale Barns</tspan>
      </text>
    </g>
    <g clip-path="url(#Clip_24)">
      <text transform="matrix(1, 0, 0, 1, 30.253, 373.27)">
        <tspan x="-16.083" y="3.5" font-family="OpenSans-Regular" font-size="10" fill="#757575">Flixton</tspan>
      </text>
    </g>
    <g clip-path="url(#Clip_25)">
      <text transform="matrix(1, 0, 0, 1, 53.762, 356.05)">
        <tspan x="-39.592" y="3.5" font-family="OpenSans-Regular" font-size="10" fill="#757575">Davyhulme West</tspan>
      </text>
    </g>
    <g clip-path="url(#Clip_26)">
      <text transform="matrix(1, 0, 0, 1, 41.079, 338.83)">
        <tspan x="-26.909" y="3.5" font-family="OpenSans-Regular" font-size="10" fill="#757575">Brooklands</tspan>
      </text>
    </g>
    <g clip-path="url(#Clip_27)">
      <text transform="matrix(1, 0, 0, 1, 29.765, 321.62)">
        <tspan x="-15.595" y="3.5" font-family="OpenSans-Regular" font-size="10" fill="#757575">Village</tspan>
      </text>
    </g>
    <g clip-path="url(#Clip_28)">
      <text transform="matrix(1, 0, 0, 1, 37.751, 304.4)">
        <tspan x="-23.581" y="3.5" font-family="OpenSans-Regular" font-size="10" fill="#757575">Timperley</tspan>
      </text>
    </g>
    <g clip-path="url(#Clip_29)">
      <text transform="matrix(1, 0, 0, 1, 62.932, 287.18)">
        <tspan x="-48.762" y="3.5" font-family="OpenSans-Regular" font-size="10" fill="#757575">Ashton upon Mersey</tspan>
      </text>
    </g>
    <g clip-path="url(#Clip_30)">
      <text transform="matrix(1, 0, 0, 1, 51.989, 269.97)">
        <tspan x="-37.819" y="3.5" font-family="OpenSans-Regular" font-size="10" fill="#757575">Davyhulme East</tspan>
      </text>
    </g>
    <g clip-path="url(#Clip_31)">
      <text transform="matrix(1, 0, 0, 1, 35.241, 252.75)">
        <tspan x="-21.071" y="3.5" font-family="OpenSans-Regular" font-size="10" fill="#757575">Urmston</tspan>
      </text>
    </g>
    <g clip-path="url(#Clip_32)">
      <text transform="matrix(1, 0, 0, 1, 35.876, 235.53)">
        <tspan x="-21.706" y="3.5" font-family="OpenSans-Regular" font-size="10" fill="#757575">St Mary's</tspan>
      </text>
    </g>
    <g clip-path="url(#Clip_33)">
      <text transform="matrix(1, 0, 0, 1, 38.159, 218.32)">
        <tspan x="-23.989" y="3.5" font-family="OpenSans-Regular" font-size="10" fill="#757575">Sale Moor</tspan>
      </text>
    </g>
    <g clip-path="url(#Clip_34)">
      <text transform="matrix(1, 0, 0, 1, 40.119, 201.1)">
        <tspan x="-25.949" y="3.5" font-family="OpenSans-Regular" font-size="10" fill="#757575">Altrincham</tspan>
      </text>
    </g>
    <g clip-path="url(#Clip_35)">
      <text transform="matrix(1, 0, 0, 1, 59.294, 183.88)">
        <tspan x="-45.124" y="3.5" font-family="OpenSans-Regular" font-size="10" fill="#757575">Bucklow-St Martins</tspan>
      </text>
    </g>
    <g clip-path="url(#Clip_36)">
      <text transform="matrix(1, 0, 0, 1, 43.288, 166.67)">
        <tspan x="-29.118" y="3.5" font-family="OpenSans-Regular" font-size="10" fill="#757575">Hale Central</tspan>
      </text>
    </g>
    <g clip-path="url(#Clip_37)">
      <text transform="matrix(1, 0, 0, 1, 42.204, 149.45)">
        <tspan x="-28.034" y="3.5" font-family="OpenSans-Regular" font-size="10" fill="#757575">Broadheath</tspan>
      </text>
    </g>
    <g clip-path="url(#Clip_38)">
      <text transform="matrix(1, 0, 0, 1, 28.566, 132.23)">
        <tspan x="-14.396" y="3.5" font-family="OpenSans-Regular" font-size="10" fill="#757575">Priory</tspan>
      </text>
    </g>
    <g clip-path="url(#Clip_39)">
      <text transform="matrix(1, 0, 0, 1, 35.41, 115.02)">
        <tspan x="-21.24" y="3.5" font-family="OpenSans-Regular" font-size="10" fill="#757575">Stretford</tspan>
      </text>
    </g>
    <g clip-path="url(#Clip_40)">
      <text transform="matrix(1, 0, 0, 1, 35.813, 97.8)">
        <tspan x="-21.643" y="3.5" font-family="OpenSans-Regular" font-size="10" fill="#757575">Longford</tspan>
      </text>
    </g>
    <g clip-path="url(#Clip_41)">
      <text transform="matrix(1, 0, 0, 1, 37.343, 80.58)">
        <tspan x="-23.173" y="3.5" font-family="OpenSans-Regular" font-size="10" fill="#757575">Gorse Hill</tspan>
      </text>
    </g>
    <g clip-path="url(#Clip_42)">
      <text transform="matrix(1, 0, 0, 1, 31.77, 63.37)">
        <tspan x="-17.6" y="3.5" font-family="OpenSans-Regular" font-size="10" fill="#757575">Clifford</tspan>
      </text>
    </g>
    <path d="M93.84,417.96 L823.83,417.96" fill-opacity="0" stroke="#FFFFFF" stroke-width="1" stroke-linejoin="round" stroke-miterlimit="10"/>
    <g clip-path="url(#Clip_43)">
      <text transform="matrix(1, 0, 0, 1, 127.519, 426.76)">
        <tspan x="-3.359" y="3.5" font-family="OpenSans-Regular" font-size="10" fill="#757575">0</tspan>
      </text>
    </g>
    <g clip-path="url(#Clip_44)">
      <text transform="matrix(1, 0, 0, 1, 274.988, 426.76)">
        <tspan x="-6.218" y="3.5" font-family="OpenSans-Regular" font-size="10" fill="#757575">10</tspan>
      </text>
    </g>
    <g clip-path="url(#Clip_45)">
      <text transform="matrix(1, 0, 0, 1, 422.468, 426.76)">
        <tspan x="-6.218" y="3.5" font-family="OpenSans-Regular" font-size="10" fill="#757575">20</tspan>
      </text>
    </g>
    <g clip-path="url(#Clip_46)">
      <text transform="matrix(1, 0, 0, 1, 569.938, 426.76)">
        <tspan x="-6.218" y="3.5" font-family="OpenSans-Regular" font-size="10" fill="#757575">30</tspan>
      </text>
    </g>
    <g clip-path="url(#Clip_47)">
      <text transform="matrix(1, 0, 0, 1, 717.408, 426.76)">
        <tspan x="-6.218" y="3.5" font-family="OpenSans-Regular" font-size="10" fill="#757575">40</tspan>
      </text>
    </g>
    <g clip-path="url(#Clip_48)">
      <text transform="matrix(1, 0, 0, 1, 314.4, 38.24)">
        <tspan x="-180.09" y="3.5" font-family="Roboto-Regular" font-size="12" fill="#757575">Number of people aged 65 and over as % of working age population</tspan>
      </text>
    </g>
    <g clip-path="url(#Clip_49)">
      <text transform="matrix(1, 0, 0, 1, 341.015, 21.19)">
        <tspan x="-206.955" y="5.5" font-family="Roboto-Regular" font-size="18" fill="#757575">Old-age dependency ratios in Trafford's wards, 2017</tspan>
      </text>
    </g>
    <g clip-path="url(#Clip_50)">
      <text transform="matrix(1, 0, 0, 1, 691.825, 453.61)">
        <tspan x="-124.345" y="2.5" font-family="Roboto-Regular" font-size="10" fill="#212121">Source: Office for National Statistics | @traffordDataLab</tspan>
      </text>
    </g>
  </g>
</svg>
