<?xml version="1.0" encoding="UTF-8"?>
<!DOCTYPE svg PUBLIC "-//W3C//DTD SVG 1.1//EN" "http://www.w3.org/Graphics/SVG/1.1/DTD/svg11.dtd">
<svg version="1.1" xmlns="http://www.w3.org/2000/svg" xmlns:xlink="http://www.w3.org/1999/xlink" x="0" y="0" width="754" height="430" viewBox="0, 0, 754, 430">
  <defs>
    <clipPath id="Clip_1">
      <path d="M99.96,54.5 L739.82,54.5 L739.82,374.43 L99.96,374.43 z"/>
    </clipPath>
    <clipPath id="Clip_2">
      <path d="M99.96,54.5 L739.82,54.5 L739.82,374.43 L99.96,374.43 z"/>
    </clipPath>
    <clipPath id="Clip_3">
      <path d="M99.96,54.5 L739.82,54.5 L739.82,374.43 L99.96,374.43 z"/>
    </clipPath>
    <clipPath id="Clip_4">
      <path d="M99.96,54.5 L739.82,54.5 L739.82,374.43 L99.96,374.43 z"/>
    </clipPath>
    <clipPath id="Clip_5">
      <path d="M99.96,54.5 L739.82,54.5 L739.82,374.43 L99.96,374.43 z"/>
    </clipPath>
    <clipPath id="Clip_6">
      <path d="M99.96,54.5 L739.82,54.5 L739.82,374.43 L99.96,374.43 z"/>
    </clipPath>
    <clipPath id="Clip_7">
      <path d="M99.96,54.5 L739.82,54.5 L739.82,374.43 L99.96,374.43 z"/>
    </clipPath>
    <clipPath id="Clip_8">
      <path d="M99.96,54.5 L739.82,54.5 L739.82,374.43 L99.96,374.43 z"/>
    </clipPath>
    <clipPath id="Clip_9">
      <path d="M99.96,54.5 L739.82,54.5 L739.82,374.43 L99.96,374.43 z"/>
    </clipPath>
    <clipPath id="Clip_10">
      <path d="M99.96,54.5 L739.82,54.5 L739.82,374.43 L99.96,374.43 z"/>
    </clipPath>
    <clipPath id="Clip_11">
      <path d="M99.96,54.5 L739.82,54.5 L739.82,374.43 L99.96,374.43 z"/>
    </clipPath>
    <clipPath id="Clip_12">
      <path d="M99.96,54.5 L739.82,54.5 L739.82,374.43 L99.96,374.43 z"/>
    </clipPath>
    <clipPath id="Clip_13">
      <path d="M99.96,54.5 L739.82,54.5 L739.82,374.43 L99.96,374.43 z"/>
    </clipPath>
    <clipPath id="Clip_14">
      <path d="M99.96,54.5 L739.82,54.5 L739.82,374.43 L99.96,374.43 z"/>
    </clipPath>
    <clipPath id="Clip_15">
      <path d="M99.96,54.5 L739.82,54.5 L739.82,374.43 L99.96,374.43 z"/>
    </clipPath>
    <clipPath id="Clip_16">
      <path d="M99.96,54.5 L739.82,54.5 L739.82,374.43 L99.96,374.43 z"/>
    </clipPath>
    <clipPath id="Clip_17">
      <path d="M99.96,54.5 L739.82,54.5 L739.82,374.43 L99.96,374.43 z"/>
    </clipPath>
    <clipPath id="Clip_18">
      <path d="M99.96,54.5 L739.82,54.5 L739.82,374.43 L99.96,374.43 z"/>
    </clipPath>
    <clipPath id="Clip_19">
      <path d="M99.96,54.5 L739.82,54.5 L739.82,374.43 L99.96,374.43 z"/>
    </clipPath>
    <clipPath id="Clip_20">
      <path d="M99.96,54.5 L739.82,54.5 L739.82,374.43 L99.96,374.43 z"/>
    </clipPath>
    <clipPath id="Clip_21">
      <path d="M99.96,54.5 L739.82,54.5 L739.82,374.43 L99.96,374.43 z"/>
    </clipPath>
    <clipPath id="Clip_22">
      <path d="M0,-100 L754,-100 L754,528 L0,528 z"/>
    </clipPath>
    <clipPath id="Clip_23">
      <path d="M0,-100 L754,-100 L754,528 L0,528 z"/>
    </clipPath>
    <clipPath id="Clip_24">
      <path d="M0,-100 L754,-100 L754,528 L0,528 z"/>
    </clipPath>
    <clipPath id="Clip_25">
      <path d="M0,-100 L754,-100 L754,528 L0,528 z"/>
    </clipPath>
    <clipPath id="Clip_26">
      <path d="M0,-100 L754,-100 L754,528 L0,528 z"/>
    </clipPath>
    <clipPath id="Clip_27">
      <path d="M0,-100 L754,-100 L754,528 L0,528 z"/>
    </clipPath>
    <clipPath id="Clip_28">
      <path d="M0,-100 L754,-100 L754,528 L0,528 z"/>
    </clipPath>
    <clipPath id="Clip_29">
      <path d="M0,-100 L754,-100 L754,528 L0,528 z"/>
    </clipPath>
    <clipPath id="Clip_30">
      <path d="M0,-100 L754,-100 L754,528 L0,528 z"/>
    </clipPath>
    <clipPath id="Clip_31">
      <path d="M0,-100 L754,-100 L754,528 L0,528 z"/>
    </clipPath>
    <clipPath id="Clip_32">
      <path d="M0,-100 L754,-100 L754,528 L0,528 z"/>
    </clipPath>
    <clipPath id="Clip_33">
      <path d="M0,-100 L754,-100 L754,528 L0,528 z"/>
    </clipPath>
    <clipPath id="Clip_34">
      <path d="M0,-100 L754,-100 L754,528 L0,528 z"/>
    </clipPath>
    <clipPath id="Clip_35">
      <path d="M0,-100 L754,-100 L754,528 L0,528 z"/>
    </clipPath>
    <clipPath id="Clip_36">
      <path d="M0,-100 L754,-100 L754,528 L0,528 z"/>
    </clipPath>
    <clipPath id="Clip_37">
      <path d="M0,-100 L754,-100 L754,528 L0,528 z"/>
    </clipPath>
    <clipPath id="Clip_38">
      <path d="M0,-100 L754,-100 L754,528 L0,528 z"/>
    </clipPath>
    <clipPath id="Clip_39">
      <path d="M0,-100 L754,-100 L754,528 L0,528 z"/>
    </clipPath>
    <clipPath id="Clip_40">
      <path d="M0,-100 L754,-100 L754,528 L0,528 z"/>
    </clipPath>
    <clipPath id="Clip_41">
      <path d="M0,-100 L754,-100 L754,528 L0,528 z"/>
    </clipPath>
    <clipPath id="Clip_42">
      <path d="M0,-100 L754,-100 L754,528 L0,528 z"/>
    </clipPath>
    <clipPath id="Clip_43">
      <path d="M0,-100 L754,-100 L754,528 L0,528 z"/>
    </clipPath>
    <clipPath id="Clip_44">
      <path d="M0,-100 L754,-100 L754,528 L0,528 z"/>
    </clipPath>
    <clipPath id="Clip_45">
      <path d="M0,-100 L754,-100 L754,528 L0,528 z"/>
    </clipPath>
    <clipPath id="Clip_46">
      <path d="M0,-100 L754,-100 L754,528 L0,528 z"/>
    </clipPath>
    <clipPath id="Clip_47">
      <path d="M0,-100 L754,-100 L754,528 L0,528 z"/>
    </clipPath>
    <clipPath id="Clip_48">
      <path d="M0,-100 L754,-100 L754,528 L0,528 z"/>
    </clipPath>
    <clipPath id="Clip_49">
      <path d="M0,-100 L754,-100 L754,528 L0,528 z"/>
    </clipPath>
    <clipPath id="Clip_50">
      <path d="M0,-100 L754,-100 L754,528 L0,528 z"/>
    </clipPath>
  </defs>
  <g id="Layer_1">
    <g>
      <path d="M0,-100 L1,-100 L1,-99 L0,-99 z" fill="#FFFFFF"/>
      <path d="M0,-100 L1,-100 L1,-99 L0,-99 z" fill-opacity="0" stroke="#000000" stroke-width="1" stroke-linecap="round" stroke-linejoin="round" stroke-miterlimit="10"/>
    </g>
    <path d="M129.05,365.37 L710.74,365.37" fill-opacity="0" stroke="#F0F0F0" stroke-width="1" stroke-linejoin="round" stroke-miterlimit="10"/>
    <path d="M129.05,350.28 L710.74,350.28" fill-opacity="0" stroke="#F0F0F0" stroke-width="1" stroke-linejoin="round" stroke-miterlimit="10"/>
    <path d="M129.05,335.19 L607.33,335.19" fill-opacity="0" stroke="#F0F0F0" stroke-width="1" stroke-linejoin="round" stroke-miterlimit="10"/>
    <path d="M129.05,320.1 L581.48,320.1" fill-opacity="0" stroke="#F0F0F0" stroke-width="1" stroke-linejoin="round" stroke-miterlimit="10"/>
    <path d="M129.05,305.01 L568.55,305.01" fill-opacity="0" stroke="#F0F0F0" stroke-width="1" stroke-linejoin="round" stroke-miterlimit="10"/>
    <path d="M129.05,289.92 L568.55,289.92" fill-opacity="0" stroke="#F0F0F0" stroke-width="1" stroke-linejoin="round" stroke-miterlimit="10"/>
    <path d="M129.05,274.83 L555.62,274.83" fill-opacity="0" stroke="#F0F0F0" stroke-width="1" stroke-linejoin="round" stroke-miterlimit="10"/>
    <path d="M129.05,259.74 L542.7,259.74" fill-opacity="0" stroke="#F0F0F0" stroke-width="1" stroke-linejoin="round" stroke-miterlimit="10"/>
    <path d="M129.05,244.65 L542.7,244.65" fill-opacity="0" stroke="#F0F0F0" stroke-width="1" stroke-linejoin="round" stroke-miterlimit="10"/>
    <path d="M129.05,229.55 L542.7,229.55" fill-opacity="0" stroke="#F0F0F0" stroke-width="1" stroke-linejoin="round" stroke-miterlimit="10"/>
    <path d="M129.05,214.46 L516.84,214.46" fill-opacity="0" stroke="#F0F0F0" stroke-width="1" stroke-linejoin="round" stroke-miterlimit="10"/>
    <path d="M129.05,199.37 L490.99,199.37" fill-opacity="0" stroke="#F0F0F0" stroke-width="1" stroke-linejoin="round" stroke-miterlimit="10"/>
    <path d="M129.05,184.28 L452.21,184.28" fill-opacity="0" stroke="#F0F0F0" stroke-width="1" stroke-linejoin="round" stroke-miterlimit="10"/>
    <path d="M129.05,169.19 L452.21,169.19" fill-opacity="0" stroke="#F0F0F0" stroke-width="1" stroke-linejoin="round" stroke-miterlimit="10"/>
    <path d="M129.05,154.1 L439.29,154.1" fill-opacity="0" stroke="#F0F0F0" stroke-width="1" stroke-linejoin="round" stroke-miterlimit="10"/>
    <path d="M129.05,139.01 L426.36,139.01" fill-opacity="0" stroke="#F0F0F0" stroke-width="1" stroke-linejoin="round" stroke-miterlimit="10"/>
    <path d="M129.05,123.92 L413.43,123.92" fill-opacity="0" stroke="#F0F0F0" stroke-width="1" stroke-linejoin="round" stroke-miterlimit="10"/>
    <path d="M129.05,108.83 L413.43,108.83" fill-opacity="0" stroke="#F0F0F0" stroke-width="1" stroke-linejoin="round" stroke-miterlimit="10"/>
    <path d="M129.05,93.73 L400.51,93.73" fill-opacity="0" stroke="#F0F0F0" stroke-width="1" stroke-linejoin="round" stroke-miterlimit="10"/>
    <path d="M129.05,78.64 L335.87,78.64" fill-opacity="0" stroke="#F0F0F0" stroke-width="1" stroke-linejoin="round" stroke-miterlimit="10"/>
    <path d="M129.05,63.55 L297.09,63.55" fill-opacity="0" stroke="#F0F0F0" stroke-width="1" stroke-linejoin="round" stroke-miterlimit="10"/>
    <g>
      <path d="M717.5,365.37 C717.5,369.103 714.473,372.13 710.74,372.13 C707.007,372.13 703.98,369.103 703.98,365.37 C703.98,361.637 707.007,358.61 710.74,358.61 C714.473,358.61 717.5,361.637 717.5,365.37 z" fill="#FC6721"/>
      <path d="M717.5,365.37 C717.5,369.103 714.473,372.13 710.74,372.13 C707.007,372.13 703.98,369.103 703.98,365.37 C703.98,361.637 707.007,358.61 710.74,358.61 C714.473,358.61 717.5,361.637 717.5,365.37 z" fill-opacity="0" stroke="#FC6721" stroke-width="1" stroke-linecap="round" stroke-linejoin="round" stroke-miterlimit="10"/>
    </g>
    <g>
      <path d="M717.5,350.28 C717.5,354.013 714.473,357.04 710.74,357.04 C707.007,357.04 703.98,354.013 703.98,350.28 C703.98,346.547 707.007,343.52 710.74,343.52 C714.473,343.52 717.5,346.547 717.5,350.28 z" fill="#FC6721"/>
      <path d="M717.5,350.28 C717.5,354.013 714.473,357.04 710.74,357.04 C707.007,357.04 703.98,354.013 703.98,350.28 C703.98,346.547 707.007,343.52 710.74,343.52 C714.473,343.52 717.5,346.547 717.5,350.28 z" fill-opacity="0" stroke="#FC6721" stroke-width="1" stroke-linecap="round" stroke-linejoin="round" stroke-miterlimit="10"/>
    </g>
    <g>
      <path d="M614.09,335.19 C614.09,338.923 611.063,341.95 607.33,341.95 C603.597,341.95 600.57,338.923 600.57,335.19 C600.57,331.457 603.597,328.43 607.33,328.43 C611.063,328.43 614.09,331.457 614.09,335.19 z" fill="#FC6721"/>
      <path d="M614.09,335.19 C614.09,338.923 611.063,341.95 607.33,341.95 C603.597,341.95 600.57,338.923 600.57,335.19 C600.57,331.457 603.597,328.43 607.33,328.43 C611.063,328.43 614.09,331.457 614.09,335.19 z" fill-opacity="0" stroke="#FC6721" stroke-width="1" stroke-linecap="round" stroke-linejoin="round" stroke-miterlimit="10"/>
    </g>
    <g>
      <path d="M588.24,320.1 C588.24,323.833 585.213,326.86 581.48,326.86 C577.747,326.86 574.72,323.833 574.72,320.1 C574.72,316.367 577.747,313.34 581.48,313.34 C585.213,313.34 588.24,316.367 588.24,320.1 z" fill="#FC6721"/>
      <path d="M588.24,320.1 C588.24,323.833 585.213,326.86 581.48,326.86 C577.747,326.86 574.72,323.833 574.72,320.1 C574.72,316.367 577.747,313.34 581.48,313.34 C585.213,313.34 588.24,316.367 588.24,320.1 z" fill-opacity="0" stroke="#FC6721" stroke-width="1" stroke-linecap="round" stroke-linejoin="round" stroke-miterlimit="10"/>
    </g>
    <g>
      <path d="M575.31,305.01 C575.31,308.743 572.283,311.77 568.55,311.77 C564.817,311.77 561.79,308.743 561.79,305.01 C561.79,301.277 564.817,298.25 568.55,298.25 C572.283,298.25 575.31,301.277 575.31,305.01 z" fill="#FC6721"/>
      <path d="M575.31,305.01 C575.31,308.743 572.283,311.77 568.55,311.77 C564.817,311.77 561.79,308.743 561.79,305.01 C561.79,301.277 564.817,298.25 568.55,298.25 C572.283,298.25 575.31,301.277 575.31,305.01 z" fill-opacity="0" stroke="#FC6721" stroke-width="1" stroke-linecap="round" stroke-linejoin="round" stroke-miterlimit="10"/>
    </g>
    <g>
      <path d="M575.31,289.92 C575.31,293.653 572.283,296.68 568.55,296.68 C564.817,296.68 561.79,293.653 561.79,289.92 C561.79,286.187 564.817,283.16 568.55,283.16 C572.283,283.16 575.31,286.187 575.31,289.92 z" fill="#FC6721"/>
      <path d="M575.31,289.92 C575.31,293.653 572.283,296.68 568.55,296.68 C564.817,296.68 561.79,293.653 561.79,289.92 C561.79,286.187 564.817,283.16 568.55,283.16 C572.283,283.16 575.31,286.187 575.31,289.92 z" fill-opacity="0" stroke="#FC6721" stroke-width="1" stroke-linecap="round" stroke-linejoin="round" stroke-miterlimit="10"/>
    </g>
    <g>
      <path d="M562.38,274.83 C562.38,278.563 559.353,281.59 555.62,281.59 C551.887,281.59 548.86,278.563 548.86,274.83 C548.86,271.097 551.887,268.07 555.62,268.07 C559.353,268.07 562.38,271.097 562.38,274.83 z" fill="#FC6721"/>
      <path d="M562.38,274.83 C562.38,278.563 559.353,281.59 555.62,281.59 C551.887,281.59 548.86,278.563 548.86,274.83 C548.86,271.097 551.887,268.07 555.62,268.07 C559.353,268.07 562.38,271.097 562.38,274.83 z" fill-opacity="0" stroke="#FC6721" stroke-width="1" stroke-linecap="round" stroke-linejoin="round" stroke-miterlimit="10"/>
    </g>
    <g>
      <path d="M549.46,259.74 C549.46,263.473 546.433,266.5 542.7,266.5 C538.967,266.5 535.94,263.473 535.94,259.74 C535.94,256.007 538.967,252.98 542.7,252.98 C546.433,252.98 549.46,256.007 549.46,259.74 z" fill="#FC6721"/>
      <path d="M549.46,259.74 C549.46,263.473 546.433,266.5 542.7,266.5 C538.967,266.5 535.94,263.473 535.94,259.74 C535.94,256.007 538.967,252.98 542.7,252.98 C546.433,252.98 549.46,256.007 549.46,259.74 z" fill-opacity="0" stroke="#FC6721" stroke-width="1" stroke-linecap="round" stroke-linejoin="round" stroke-miterlimit="10"/>
    </g>
    <g>
      <path d="M549.46,244.65 C549.46,248.383 546.433,251.41 542.7,251.41 C538.967,251.41 535.94,248.383 535.94,244.65 C535.94,240.917 538.967,237.89 542.7,237.89 C546.433,237.89 549.46,240.917 549.46,244.65 z" fill="#FC6721"/>
      <path d="M549.46,244.65 C549.46,248.383 546.433,251.41 542.7,251.41 C538.967,251.41 535.94,248.383 535.94,244.65 C535.94,240.917 538.967,237.89 542.7,237.89 C546.433,237.89 549.46,240.917 549.46,244.65 z" fill-opacity="0" stroke="#FC6721" stroke-width="1" stroke-linecap="round" stroke-linejoin="round" stroke-miterlimit="10"/>
    </g>
    <g>
      <path d="M549.46,229.55 C549.46,233.283 546.433,236.31 542.7,236.31 C538.967,236.31 535.94,233.283 535.94,229.55 C535.94,225.817 538.967,222.79 542.7,222.79 C546.433,222.79 549.46,225.817 549.46,229.55 z" fill="#FC6721"/>
      <path d="M549.46,229.55 C549.46,233.283 546.433,236.31 542.7,236.31 C538.967,236.31 535.94,233.283 535.94,229.55 C535.94,225.817 538.967,222.79 542.7,222.79 C546.433,222.79 549.46,225.817 549.46,229.55 z" fill-opacity="0" stroke="#FC6721" stroke-width="1" stroke-linecap="round" stroke-linejoin="round" stroke-miterlimit="10"/>
    </g>
    <g>
      <path d="M523.6,214.46 C523.6,218.193 520.573,221.22 516.84,221.22 C513.107,221.22 510.08,218.193 510.08,214.46 C510.08,210.727 513.107,207.7 516.84,207.7 C520.573,207.7 523.6,210.727 523.6,214.46 z" fill="#FC6721"/>
      <path d="M523.6,214.46 C523.6,218.193 520.573,221.22 516.84,221.22 C513.107,221.22 510.08,218.193 510.08,214.46 C510.08,210.727 513.107,207.7 516.84,207.7 C520.573,207.7 523.6,210.727 523.6,214.46 z" fill-opacity="0" stroke="#FC6721" stroke-width="1" stroke-linecap="round" stroke-linejoin="round" stroke-miterlimit="10"/>
    </g>
    <g>
      <path d="M497.75,199.37 C497.75,203.103 494.723,206.13 490.99,206.13 C487.257,206.13 484.23,203.103 484.23,199.37 C484.23,195.637 487.257,192.61 490.99,192.61 C494.723,192.61 497.75,195.637 497.75,199.37 z" fill="#FC6721"/>
      <path d="M497.75,199.37 C497.75,203.103 494.723,206.13 490.99,206.13 C487.257,206.13 484.23,203.103 484.23,199.37 C484.23,195.637 487.257,192.61 490.99,192.61 C494.723,192.61 497.75,195.637 497.75,199.37 z" fill-opacity="0" stroke="#FC6721" stroke-width="1" stroke-linecap="round" stroke-linejoin="round" stroke-miterlimit="10"/>
    </g>
    <g>
      <path d="M458.97,184.28 C458.97,188.013 455.943,191.04 452.21,191.04 C448.477,191.04 445.45,188.013 445.45,184.28 C445.45,180.547 448.477,177.52 452.21,177.52 C455.943,177.52 458.97,180.547 458.97,184.28 z" fill="#FC6721"/>
      <path d="M458.97,184.28 C458.97,188.013 455.943,191.04 452.21,191.04 C448.477,191.04 445.45,188.013 445.45,184.28 C445.45,180.547 448.477,177.52 452.21,177.52 C455.943,177.52 458.97,180.547 458.97,184.28 z" fill-opacity="0" stroke="#FC6721" stroke-width="1" stroke-linecap="round" stroke-linejoin="round" stroke-miterlimit="10"/>
    </g>
    <g>
      <path d="M458.97,169.19 C458.97,172.923 455.943,175.95 452.21,175.95 C448.477,175.95 445.45,172.923 445.45,169.19 C445.45,165.457 448.477,162.43 452.21,162.43 C455.943,162.43 458.97,165.457 458.97,169.19 z" fill="#FC6721"/>
      <path d="M458.97,169.19 C458.97,172.923 455.943,175.95 452.21,175.95 C448.477,175.95 445.45,172.923 445.45,169.19 C445.45,165.457 448.477,162.43 452.21,162.43 C455.943,162.43 458.97,165.457 458.97,169.19 z" fill-opacity="0" stroke="#FC6721" stroke-width="1" stroke-linecap="round" stroke-linejoin="round" stroke-miterlimit="10"/>
    </g>
    <g>
      <path d="M446.05,154.1 C446.05,157.833 443.023,160.86 439.29,160.86 C435.557,160.86 432.53,157.833 432.53,154.1 C432.53,150.367 435.557,147.34 439.29,147.34 C443.023,147.34 446.05,150.367 446.05,154.1 z" fill="#FC6721"/>
      <path d="M446.05,154.1 C446.05,157.833 443.023,160.86 439.29,160.86 C435.557,160.86 432.53,157.833 432.53,154.1 C432.53,150.367 435.557,147.34 439.29,147.34 C443.023,147.34 446.05,150.367 446.05,154.1 z" fill-opacity="0" stroke="#FC6721" stroke-width="1" stroke-linecap="round" stroke-linejoin="round" stroke-miterlimit="10"/>
    </g>
    <g>
      <path d="M433.12,139.01 C433.12,142.743 430.093,145.77 426.36,145.77 C422.627,145.77 419.6,142.743 419.6,139.01 C419.6,135.277 422.627,132.25 426.36,132.25 C430.093,132.25 433.12,135.277 433.12,139.01 z" fill="#FC6721"/>
      <path d="M433.12,139.01 C433.12,142.743 430.093,145.77 426.36,145.77 C422.627,145.77 419.6,142.743 419.6,139.01 C419.6,135.277 422.627,132.25 426.36,132.25 C430.093,132.25 433.12,135.277 433.12,139.01 z" fill-opacity="0" stroke="#FC6721" stroke-width="1" stroke-linecap="round" stroke-linejoin="round" stroke-miterlimit="10"/>
    </g>
    <g>
      <path d="M420.19,123.92 C420.19,127.653 417.163,130.68 413.43,130.68 C409.697,130.68 406.67,127.653 406.67,123.92 C406.67,120.187 409.697,117.16 413.43,117.16 C417.163,117.16 420.19,120.187 420.19,123.92 z" fill="#FC6721"/>
      <path d="M420.19,123.92 C420.19,127.653 417.163,130.68 413.43,130.68 C409.697,130.68 406.67,127.653 406.67,123.92 C406.67,120.187 409.697,117.16 413.43,117.16 C417.163,117.16 420.19,120.187 420.19,123.92 z" fill-opacity="0" stroke="#FC6721" stroke-width="1" stroke-linecap="round" stroke-linejoin="round" stroke-miterlimit="10"/>
    </g>
    <g>
      <path d="M420.19,108.83 C420.19,112.563 417.163,115.59 413.43,115.59 C409.697,115.59 406.67,112.563 406.67,108.83 C406.67,105.097 409.697,102.07 413.43,102.07 C417.163,102.07 420.19,105.097 420.19,108.83 z" fill="#FC6721"/>
      <path d="M420.19,108.83 C420.19,112.563 417.163,115.59 413.43,115.59 C409.697,115.59 406.67,112.563 406.67,108.83 C406.67,105.097 409.697,102.07 413.43,102.07 C417.163,102.07 420.19,105.097 420.19,108.83 z" fill-opacity="0" stroke="#FC6721" stroke-width="1" stroke-linecap="round" stroke-linejoin="round" stroke-miterlimit="10"/>
    </g>
    <g>
      <path d="M407.27,93.73 C407.27,97.463 404.243,100.49 400.51,100.49 C396.777,100.49 393.75,97.463 393.75,93.73 C393.75,89.997 396.777,86.97 400.51,86.97 C404.243,86.97 407.27,89.997 407.27,93.73 z" fill="#FC6721"/>
      <path d="M407.27,93.73 C407.27,97.463 404.243,100.49 400.51,100.49 C396.777,100.49 393.75,97.463 393.75,93.73 C393.75,89.997 396.777,86.97 400.51,86.97 C404.243,86.97 407.27,89.997 407.27,93.73 z" fill-opacity="0" stroke="#FC6721" stroke-width="1" stroke-linecap="round" stroke-linejoin="round" stroke-miterlimit="10"/>
    </g>
    <g>
      <path d="M342.63,78.64 C342.63,82.373 339.603,85.4 335.87,85.4 C332.137,85.4 329.11,82.373 329.11,78.64 C329.11,74.907 332.137,71.88 335.87,71.88 C339.603,71.88 342.63,74.907 342.63,78.64 z" fill="#FC6721"/>
      <path d="M342.63,78.64 C342.63,82.373 339.603,85.4 335.87,85.4 C332.137,85.4 329.11,82.373 329.11,78.64 C329.11,74.907 332.137,71.88 335.87,71.88 C339.603,71.88 342.63,74.907 342.63,78.64 z" fill-opacity="0" stroke="#FC6721" stroke-width="1" stroke-linecap="round" stroke-linejoin="round" stroke-miterlimit="10"/>
    </g>
    <g>
      <path d="M303.85,63.55 C303.85,67.283 300.823,70.31 297.09,70.31 C293.357,70.31 290.33,67.283 290.33,63.55 C290.33,59.817 293.357,56.79 297.09,56.79 C300.823,56.79 303.85,59.817 303.85,63.55 z" fill="#FC6721"/>
      <path d="M303.85,63.55 C303.85,67.283 300.823,70.31 297.09,70.31 C293.357,70.31 290.33,67.283 290.33,63.55 C290.33,59.817 293.357,56.79 297.09,56.79 C300.823,56.79 303.85,59.817 303.85,63.55 z" fill-opacity="0" stroke="#FC6721" stroke-width="1" stroke-linecap="round" stroke-linejoin="round" stroke-miterlimit="10"/>
    </g>
    <g clip-path="url(#Clip_1)">
      <text transform="matrix(1, 0, 0, 1, 710.99, 366.09)">
        <tspan x="-5.25" y="2.5" font-family="Arial-BoldMT" font-size="8.54" fill="#FFFFFF">45</tspan>
      </text>
    </g>
    <g clip-path="url(#Clip_2)">
      <text transform="matrix(1, 0, 0, 1, 710.99, 351)">
        <tspan x="-5.25" y="2.5" font-family="Arial-BoldMT" font-size="8.54" fill="#FFFFFF">45</tspan>
      </text>
    </g>
    <g clip-path="url(#Clip_3)">
      <text transform="matrix(1, 0, 0, 1, 607.57, 335.91)">
        <tspan x="-5.25" y="2.5" font-family="Arial-BoldMT" font-size="8.54" fill="#FFFFFF">37</tspan>
      </text>
    </g>
    <g clip-path="url(#Clip_4)">
      <text transform="matrix(1, 0, 0, 1, 581.72, 320.82)">
        <tspan x="-5.25" y="2.5" font-family="Arial-BoldMT" font-size="8.54" fill="#FFFFFF">35</tspan>
      </text>
    </g>
    <g clip-path="url(#Clip_5)">
      <text transform="matrix(1, 0, 0, 1, 568.79, 305.73)">
        <tspan x="-5.25" y="2.5" font-family="Arial-BoldMT" font-size="8.54" fill="#FFFFFF">34</tspan>
      </text>
    </g>
    <g clip-path="url(#Clip_6)">
      <text transform="matrix(1, 0, 0, 1, 568.79, 290.64)">
        <tspan x="-5.25" y="2.5" font-family="Arial-BoldMT" font-size="8.54" fill="#FFFFFF">34</tspan>
      </text>
    </g>
    <g clip-path="url(#Clip_7)">
      <text transform="matrix(1, 0, 0, 1, 555.87, 275.55)">
        <tspan x="-5.25" y="2.5" font-family="Arial-BoldMT" font-size="8.54" fill="#FFFFFF">33</tspan>
      </text>
    </g>
    <g clip-path="url(#Clip_8)">
      <text transform="matrix(1, 0, 0, 1, 542.94, 260.46)">
        <tspan x="-5.25" y="2.5" font-family="Arial-BoldMT" font-size="8.54" fill="#FFFFFF">32</tspan>
      </text>
    </g>
    <g clip-path="url(#Clip_9)">
      <text transform="matrix(1, 0, 0, 1, 542.94, 245.36)">
        <tspan x="-5.25" y="2.5" font-family="Arial-BoldMT" font-size="8.54" fill="#FFFFFF">32</tspan>
      </text>
    </g>
    <g clip-path="url(#Clip_10)">
      <text transform="matrix(1, 0, 0, 1, 542.94, 230.27)">
        <tspan x="-5.25" y="2.5" font-family="Arial-BoldMT" font-size="8.54" fill="#FFFFFF">32</tspan>
      </text>
    </g>
    <g clip-path="url(#Clip_11)">
      <text transform="matrix(1, 0, 0, 1, 517.09, 215.18)">
        <tspan x="-5.25" y="2.5" font-family="Arial-BoldMT" font-size="8.54" fill="#FFFFFF">30</tspan>
      </text>
    </g>
    <g clip-path="url(#Clip_12)">
      <text transform="matrix(1, 0, 0, 1, 491.24, 200.09)">
        <tspan x="-5.25" y="2.5" font-family="Arial-BoldMT" font-size="8.54" fill="#FFFFFF">28</tspan>
      </text>
    </g>
    <g clip-path="url(#Clip_13)">
      <text transform="matrix(1, 0, 0, 1, 452.46, 185)">
        <tspan x="-5.25" y="2.5" font-family="Arial-BoldMT" font-size="8.54" fill="#FFFFFF">25</tspan>
      </text>
    </g>
    <g clip-path="url(#Clip_14)">
      <text transform="matrix(1, 0, 0, 1, 452.46, 169.91)">
        <tspan x="-5.25" y="2.5" font-family="Arial-BoldMT" font-size="8.54" fill="#FFFFFF">25</tspan>
      </text>
    </g>
    <g clip-path="url(#Clip_15)">
      <text transform="matrix(1, 0, 0, 1, 439.53, 154.82)">
        <tspan x="-5.25" y="2.5" font-family="Arial-BoldMT" font-size="8.54" fill="#FFFFFF">24</tspan>
      </text>
    </g>
    <g clip-path="url(#Clip_16)">
      <text transform="matrix(1, 0, 0, 1, 426.6, 139.73)">
        <tspan x="-5.25" y="2.5" font-family="Arial-BoldMT" font-size="8.54" fill="#FFFFFF">23</tspan>
      </text>
    </g>
    <g clip-path="url(#Clip_17)">
      <text transform="matrix(1, 0, 0, 1, 413.68, 124.64)">
        <tspan x="-5.25" y="2.5" font-family="Arial-BoldMT" font-size="8.54" fill="#FFFFFF">22</tspan>
      </text>
    </g>
    <g clip-path="url(#Clip_18)">
      <text transform="matrix(1, 0, 0, 1, 413.68, 109.54)">
        <tspan x="-5.25" y="2.5" font-family="Arial-BoldMT" font-size="8.54" fill="#FFFFFF">22</tspan>
      </text>
    </g>
    <g clip-path="url(#Clip_19)">
      <text transform="matrix(1, 0, 0, 1, 400.75, 94.45)">
        <tspan x="-5.25" y="2.5" font-family="Arial-BoldMT" font-size="8.54" fill="#FFFFFF">21</tspan>
      </text>
    </g>
    <g clip-path="url(#Clip_20)">
      <text transform="matrix(1, 0, 0, 1, 336.12, 79.36)">
        <tspan x="-5.25" y="2.5" font-family="Arial-BoldMT" font-size="8.54" fill="#FFFFFF">16</tspan>
      </text>
    </g>
    <g clip-path="url(#Clip_21)">
      <text transform="matrix(1, 0, 0, 1, 297.34, 64.27)">
        <tspan x="-5.25" y="2.5" font-family="Arial-BoldMT" font-size="8.54" fill="#FFFFFF">13</tspan>
      </text>
    </g>
    <path d="M99.96,374.43 L99.96,54.5" fill-opacity="0" stroke="#FFFFFF" stroke-width="1" stroke-linejoin="round" stroke-miterlimit="10"/>
    <g clip-path="url(#Clip_22)">
      <text transform="matrix(1, 0, 0, 1, 34.851, 365.44)">
        <tspan x="-20.681" y="3.5" font-family="OpenSans-Bold" font-size="10" fill="#757575">Bowdon</tspan>
      </text>
    </g>
    <g clip-path="url(#Clip_23)">
      <text transform="matrix(1, 0, 0, 1, 41.716, 350.35)">
        <tspan x="-27.546" y="3.5" font-family="OpenSans-Bold" font-size="10" fill="#757575">Hale Barns</tspan>
      </text>
    </g>
    <g clip-path="url(#Clip_24)">
      <text transform="matrix(1, 0, 0, 1, 31.909, 335.26)">
        <tspan x="-17.739" y="3.5" font-family="OpenSans-Bold" font-size="10" fill="#757575">Flixton</tspan>
      </text>
    </g>
    <g clip-path="url(#Clip_25)">
      <text transform="matrix(1, 0, 0, 1, 56.684, 320.17)">
        <tspan x="-42.514" y="3.5" font-family="OpenSans-Bold" font-size="10" fill="#757575">Davyhulme West</tspan>
      </text>
    </g>
    <g clip-path="url(#Clip_26)">
      <text transform="matrix(1, 0, 0, 1, 42.973, 305.08)">
        <tspan x="-28.803" y="3.5" font-family="OpenSans-Bold" font-size="10" fill="#757575">Brooklands</tspan>
      </text>
    </g>
    <g clip-path="url(#Clip_27)">
      <text transform="matrix(1, 0, 0, 1, 31.296, 289.99)">
        <tspan x="-17.126" y="3.5" font-family="OpenSans-Bold" font-size="10" fill="#757575">Village</tspan>
      </text>
    </g>
    <g clip-path="url(#Clip_28)">
      <text transform="matrix(1, 0, 0, 1, 39.614, 274.9)">
        <tspan x="-25.444" y="3.5" font-family="OpenSans-Bold" font-size="10" fill="#757575">Timperley</tspan>
      </text>
    </g>
    <g clip-path="url(#Clip_29)">
      <text transform="matrix(1, 0, 0, 1, 65.996, 259.81)">
        <tspan x="-51.826" y="3.5" font-family="OpenSans-Bold" font-size="10" fill="#757575">Ashton upon Mersey</tspan>
      </text>
    </g>
    <g clip-path="url(#Clip_30)">
      <text transform="matrix(1, 0, 0, 1, 54.816, 244.72)">
        <tspan x="-40.646" y="3.5" font-family="OpenSans-Bold" font-size="10" fill="#757575">Davyhulme East</tspan>
      </text>
    </g>
    <g clip-path="url(#Clip_31)">
      <text transform="matrix(1, 0, 0, 1, 36.667, 229.62)">
        <tspan x="-22.497" y="3.5" font-family="OpenSans-Bold" font-size="10" fill="#757575">Urmston</tspan>
      </text>
    </g>
    <g clip-path="url(#Clip_32)">
      <text transform="matrix(1, 0, 0, 1, 37.609, 214.53)">
        <tspan x="-23.439" y="3.5" font-family="OpenSans-Bold" font-size="10" fill="#757575">St Mary's</tspan>
      </text>
    </g>
    <g clip-path="url(#Clip_33)">
      <text transform="matrix(1, 0, 0, 1, 39.399, 199.44)">
        <tspan x="-25.229" y="3.5" font-family="OpenSans-Bold" font-size="10" fill="#757575">Sale Moor</tspan>
      </text>
    </g>
    <g clip-path="url(#Clip_34)">
      <text transform="matrix(1, 0, 0, 1, 42.685, 184.35)">
        <tspan x="-28.515" y="3.5" font-family="OpenSans-Bold" font-size="10" fill="#757575">Altrincham</tspan>
      </text>
    </g>
    <g clip-path="url(#Clip_35)">
      <text transform="matrix(1, 0, 0, 1, 63.093, 169.26)">
        <tspan x="-48.923" y="3.5" font-family="OpenSans-Bold" font-size="10" fill="#757575">Bucklow-St Martins</tspan>
      </text>
    </g>
    <g clip-path="url(#Clip_36)">
      <text transform="matrix(1, 0, 0, 1, 45.607, 154.17)">
        <tspan x="-31.438" y="3.5" font-family="OpenSans-Bold" font-size="10" fill="#757575">Hale Central</tspan>
      </text>
    </g>
    <g clip-path="url(#Clip_37)">
      <text transform="matrix(1, 0, 0, 1, 44.196, 139.08)">
        <tspan x="-30.026" y="3.5" font-family="OpenSans-Bold" font-size="10" fill="#757575">Broadheath</tspan>
      </text>
    </g>
    <g clip-path="url(#Clip_38)">
      <text transform="matrix(1, 0, 0, 1, 29.816, 123.99)">
        <tspan x="-15.646" y="3.5" font-family="OpenSans-Bold" font-size="10" fill="#757575">Priory</tspan>
      </text>
    </g>
    <g clip-path="url(#Clip_39)">
      <text transform="matrix(1, 0, 0, 1, 37.255, 108.9)">
        <tspan x="-23.085" y="3.5" font-family="OpenSans-Bold" font-size="10" fill="#757575">Stretford</tspan>
      </text>
    </g>
    <g clip-path="url(#Clip_40)">
      <text transform="matrix(1, 0, 0, 1, 37.067, 93.8)">
        <tspan x="-22.897" y="3.5" font-family="OpenSans-Bold" font-size="10" fill="#757575">Longford</tspan>
      </text>
    </g>
    <g clip-path="url(#Clip_41)">
      <text transform="matrix(1, 0, 0, 1, 38.798, 78.71)">
        <tspan x="-24.628" y="3.5" font-family="OpenSans-Bold" font-size="10" fill="#757575">Gorse Hill</tspan>
      </text>
    </g>
    <g clip-path="url(#Clip_42)">
      <text transform="matrix(1, 0, 0, 1, 33.208, 63.62)">
        <tspan x="-19.038" y="3.5" font-family="OpenSans-Bold" font-size="10" fill="#757575">Clifford</tspan>
      </text>
    </g>
    <path d="M99.96,374.43 L739.83,374.43" fill-opacity="0" stroke="#FFFFFF" stroke-width="1" stroke-linejoin="round" stroke-miterlimit="10"/>
    <g clip-path="url(#Clip_43)">
      <text transform="matrix(1, 0, 0, 1, 129.549, 383.23)">
        <tspan x="-3.359" y="3.5" font-family="OpenSans-Regular" font-size="10" fill="#757575">0</tspan>
      </text>
    </g>
    <g clip-path="url(#Clip_44)">
      <text transform="matrix(1, 0, 0, 1, 258.818, 383.23)">
        <tspan x="-6.218" y="3.5" font-family="OpenSans-Regular" font-size="10" fill="#757575">10</tspan>
      </text>
    </g>
    <g clip-path="url(#Clip_45)">
      <text transform="matrix(1, 0, 0, 1, 388.078, 383.23)">
        <tspan x="-6.218" y="3.5" font-family="OpenSans-Regular" font-size="10" fill="#757575">20</tspan>
      </text>
    </g>
    <g clip-path="url(#Clip_46)">
      <text transform="matrix(1, 0, 0, 1, 517.348, 383.23)">
        <tspan x="-6.218" y="3.5" font-family="OpenSans-Regular" font-size="10" fill="#757575">30</tspan>
      </text>
    </g>
    <g clip-path="url(#Clip_47)">
      <text transform="matrix(1, 0, 0, 1, 646.608, 383.23)">
        <tspan x="-6.218" y="3.5" font-family="OpenSans-Regular" font-size="10" fill="#757575">40</tspan>
      </text>
    </g>
    <g clip-path="url(#Clip_48)">
      <text transform="matrix(1, 0, 0, 1, 310.62, 39.77)">
        <tspan x="-180.09" y="3.5" font-family="Roboto-Regular" font-size="12" fill="#757575">Number of people aged 65 and over as % of working age population</tspan>
      </text>
    </g>
    <g clip-path="url(#Clip_49)">
      <text transform="matrix(1, 0, 0, 1, 335.425, 22.72)">
        <tspan x="-206.955" y="5.5" font-family="Roboto-Regular" font-size="18" fill="#757575">Old-age dependency ratios in Trafford's wards, 2017</tspan>
      </text>
    </g>
    <g clip-path="url(#Clip_50)">
      <text transform="matrix(1, 0, 0, 1, 607.825, 410.08)">
        <tspan x="-124.345" y="2.5" font-family="Roboto-Regular" font-size="10" fill="#212121">Source: Office for National Statistics | @traffordDataLab</tspan>
      </text>
    </g>
  </g>
</svg>
